<svg width="1263" height="1263" viewBox="0 0 1263 1263" fill="none" xmlns="http://www.w3.org/2000/svg">
<path d="M330.256 1008C325.692 1008 321.992 1006.95 319.155 1004.85C316.318 1002.63 314.098 999.239 312.495 994.676L276.418 894.215C274.321 888.665 274.629 883.978 277.343 880.155C280.056 876.208 284.805 874.234 291.589 874.234C296.276 874.234 299.852 875.344 302.319 877.565C304.909 879.661 306.944 882.992 308.425 887.555L331.736 957.859L356.897 887.555C358.624 882.992 360.721 879.661 363.187 877.565C365.778 875.344 369.169 874.234 373.363 874.234C377.433 874.234 380.702 875.344 383.168 877.565C385.635 879.661 387.67 883.053 389.274 887.74L413.325 959.339L437.931 887.555C439.411 882.992 441.385 879.661 443.852 877.565C446.442 875.344 450.019 874.234 454.582 874.234C460.256 874.234 464.388 876.208 466.978 880.155C469.568 883.978 469.876 888.665 467.903 894.215L431.456 994.861C429.853 999.301 427.633 1002.63 424.796 1004.85C422.082 1006.95 418.444 1008 413.88 1008C409.317 1008 405.616 1006.95 402.78 1004.85C399.943 1002.63 397.723 999.239 396.119 994.676L372.253 927.887L348.017 994.861C346.29 999.301 344.07 1002.63 341.356 1004.85C338.643 1006.95 334.943 1008 330.256 1008Z" fill="#030303"/>
<path d="M523.137 1008.37C512.036 1008.37 502.416 1006.45 494.276 1002.63C486.258 998.684 480.091 993.134 475.775 985.98C471.458 978.827 469.299 970.378 469.299 960.634C469.299 951.383 471.334 943.181 475.405 936.028C479.598 928.874 485.272 923.324 492.425 919.377C499.702 915.307 507.966 913.271 517.217 913.271C526.344 913.271 534.238 915.183 540.898 919.007C547.682 922.83 552.862 928.319 556.439 935.473C560.139 942.503 561.989 950.767 561.989 960.264C561.989 965.074 559.152 967.479 553.479 967.479H500.751C501.861 973.4 504.328 977.655 508.151 980.245C511.975 982.835 517.278 984.13 524.062 984.13C526.652 984.13 529.736 983.822 533.313 983.205C536.889 982.588 540.281 981.602 543.488 980.245C547.435 978.765 550.765 978.765 553.479 980.245C556.192 981.602 557.981 983.76 558.844 986.72C559.831 989.557 559.707 992.517 558.474 995.601C557.364 998.561 555.082 1000.84 551.629 1002.45C547.312 1004.54 542.686 1006.02 537.753 1006.89C532.943 1007.87 528.071 1008.37 523.137 1008.37ZM518.697 934.548C513.763 934.548 509.693 936.028 506.486 938.988C503.403 941.948 501.429 946.265 500.566 951.939H534.978C534.608 946.142 533.004 941.825 530.167 938.988C527.454 936.028 523.63 934.548 518.697 934.548Z" fill="#030303"/>
<path d="M595.418 1008C589.991 1008 585.798 1006.52 582.837 1003.56C579.877 1000.6 578.397 996.279 578.397 990.606V891.625C578.397 885.952 579.877 881.635 582.837 878.675C585.798 875.714 589.991 874.234 595.418 874.234C600.845 874.234 605.039 875.714 607.999 878.675C610.959 881.635 612.439 885.952 612.439 891.625V926.222H666.277V891.625C666.277 885.952 667.757 881.635 670.717 878.675C673.677 875.714 677.871 874.234 683.298 874.234C688.725 874.234 692.857 875.714 695.693 878.675C698.653 881.635 700.134 885.952 700.134 891.625V990.606C700.134 996.279 698.653 1000.6 695.693 1003.56C692.857 1006.52 688.725 1008 683.298 1008C677.747 1008 673.492 1006.52 670.532 1003.56C667.695 1000.6 666.277 996.279 666.277 990.606V954.159H612.439V990.606C612.439 996.279 610.959 1000.6 607.999 1003.56C605.162 1006.52 600.968 1008 595.418 1008Z" fill="#030303"/>
<path d="M771.202 1008.37C760.101 1008.37 750.481 1006.45 742.34 1002.63C734.323 998.684 728.156 993.134 723.839 985.98C719.522 978.827 717.364 970.378 717.364 960.634C717.364 951.383 719.399 943.181 723.469 936.028C727.663 928.874 733.337 923.324 740.49 919.377C747.767 915.307 756.031 913.271 765.282 913.271C774.409 913.271 782.302 915.183 788.963 919.007C795.746 922.83 800.927 928.319 804.504 935.473C808.204 942.503 810.054 950.767 810.054 960.264C810.054 965.074 807.217 967.479 801.543 967.479H748.816C749.926 973.4 752.393 977.655 756.216 980.245C760.04 982.835 765.343 984.13 772.127 984.13C774.717 984.13 777.801 983.822 781.377 983.205C784.954 982.588 788.346 981.602 791.553 980.245C795.5 978.765 798.83 978.765 801.543 980.245C804.257 981.602 806.045 983.76 806.909 986.72C807.895 989.557 807.772 992.517 806.539 995.601C805.429 998.561 803.147 1000.84 799.693 1002.45C795.376 1004.54 790.751 1006.02 785.818 1006.89C781.007 1007.87 776.135 1008.37 771.202 1008.37ZM766.762 934.548C761.828 934.548 757.758 936.028 754.551 938.988C751.467 941.948 749.494 946.265 748.631 951.939H783.043C782.672 946.142 781.069 941.825 778.232 938.988C775.519 936.028 771.695 934.548 766.762 934.548Z" fill="#030303"/>
<path d="M858.839 1008.37C846.875 1008.37 838.118 1005.22 832.567 998.931C827.017 992.517 824.242 982.897 824.242 970.069V890.885C824.242 879.785 829.669 874.234 840.523 874.234C845.826 874.234 849.897 875.653 852.733 878.49C855.694 881.326 857.174 885.458 857.174 890.885V968.959C857.174 973.523 858.037 976.853 859.764 978.95C861.614 981.047 863.957 982.095 866.794 982.095C867.657 982.095 868.521 982.033 869.384 981.91C870.371 981.663 871.419 981.478 872.529 981.355C874.75 981.355 876.353 982.157 877.34 983.76C878.326 985.364 878.82 988.632 878.82 993.566C878.82 997.883 877.956 1001.15 876.23 1003.37C874.503 1005.47 871.851 1006.82 868.274 1007.44C867.287 1007.69 865.869 1007.87 864.019 1008C862.169 1008.24 860.442 1008.37 858.839 1008.37Z" fill="#030303"/>
<path d="M904.843 1041.3C893.989 1041.3 888.562 1035.75 888.562 1024.65V930.107C888.562 919.13 893.927 913.641 904.657 913.641C914.401 913.641 919.767 918.205 920.753 927.332C923.22 923.015 926.92 919.623 931.854 917.157C936.911 914.567 942.461 913.271 948.505 913.271C956.275 913.271 963.121 915.183 969.041 919.007C975.085 922.83 979.771 928.319 983.102 935.473C986.555 942.503 988.282 950.952 988.282 960.819C988.282 970.563 986.617 979.012 983.287 986.165C979.956 993.319 975.27 998.808 969.226 1002.63C963.306 1006.45 956.399 1008.37 948.505 1008.37C942.831 1008.37 937.528 1007.19 932.594 1004.85C927.784 1002.51 924.084 999.363 921.493 995.416V1024.65C921.493 1030.07 920.013 1034.21 917.053 1037.04C914.216 1039.88 910.146 1041.3 904.843 1041.3ZM938.144 984.13C943.078 984.13 947.148 982.28 950.355 978.58C953.562 974.88 955.165 968.959 955.165 960.819C955.165 952.555 953.562 946.635 950.355 943.058C947.148 939.358 943.078 937.508 938.144 937.508C933.087 937.508 928.955 939.358 925.749 943.058C922.542 946.635 920.938 952.555 920.938 960.819C920.938 968.959 922.542 974.88 925.749 978.58C928.955 982.28 933.087 984.13 938.144 984.13Z" fill="#030303"/>
<path d="M530.286 383.917L448.156 466.047L530.286 548.177L612.416 466.047L530.286 383.917Z" fill="#209678"/>
<path d="M736.041 342.438C736.744 341.735 737.472 341.045 738.199 340.379C749.222 329.867 762.217 321.642 776.435 316.179V316.179C778.161 315.513 779.888 314.946 781.627 314.329H781.714C783.428 313.774 785.155 313.244 786.881 312.763H787.079C788.781 312.294 790.483 311.85 792.197 311.468L792.506 311.394C794.183 311.024 795.873 310.678 797.563 310.37L797.982 310.296C799.635 310.012 801.3 309.753 802.916 309.531L803.471 309.47C805.099 309.26 806.715 309.087 808.404 308.952H809.107C810.686 308.828 812.277 308.73 813.856 308.668H814.695C816.236 308.668 817.778 308.668 819.32 308.668H820.319C821.811 308.668 823.291 308.742 824.784 308.816L825.943 308.902C827.374 309.001 828.805 309.112 830.235 309.26L831.555 309.42C832.924 309.581 834.306 309.741 835.675 309.951L837.155 310.197C838.462 310.419 839.782 310.641 841.077 310.9L842.717 311.258C843.951 311.529 845.184 311.801 846.418 312.109C847.022 312.257 847.651 312.43 848.206 312.59C849.439 312.911 850.574 313.219 851.746 313.577L853.67 314.206C854.792 314.564 855.915 314.909 857.025 315.304L859.072 316.081C860.121 316.475 861.181 316.87 862.23 317.314C862.945 317.61 863.661 317.943 864.376 318.251C865.375 318.683 866.374 319.102 867.361 319.571L869.618 320.681C870.543 321.138 871.48 321.594 872.405 322.075C873.33 322.556 873.972 322.951 874.761 323.395C875.55 323.839 876.5 324.344 877.351 324.85C878.202 325.356 878.979 325.861 879.818 326.367C880.657 326.873 881.434 327.366 882.285 327.884C883.136 328.402 883.975 329.056 884.752 329.648C885.529 330.24 886.219 330.659 886.947 331.19C887.675 331.72 888.699 332.546 889.574 333.225C890.228 333.731 890.894 334.224 891.535 334.754C892.522 335.556 893.484 336.407 894.446 337.221C894.952 337.665 895.482 338.097 895.988 338.553C897.443 339.873 898.886 341.23 900.292 342.636C901.699 344.042 903.031 345.46 904.35 346.903L905.584 348.396C906.435 349.358 907.286 350.332 908.051 351.319C908.544 351.923 909 352.552 909.469 353.157C910.184 354.057 910.912 354.957 911.59 355.882C912.071 356.536 912.528 357.214 913.009 357.893C913.638 358.781 914.242 359.669 914.871 360.569C915.34 361.272 915.772 361.988 916.228 362.703C916.684 363.418 917.363 364.479 917.893 365.38C918.423 366.28 918.744 366.86 919.126 367.6C919.509 368.34 920.15 369.388 920.631 370.301C921.112 371.214 921.408 371.83 921.791 372.595C922.173 373.36 922.716 374.408 923.147 375.321C923.579 376.233 923.85 376.887 924.196 377.677C924.541 378.466 925.01 379.502 925.429 380.427C925.848 381.352 926.07 382.043 926.379 382.894C926.687 383.745 927.094 384.732 927.427 385.657C927.76 386.582 927.995 387.309 928.266 388.123C928.537 388.938 928.883 389.974 929.166 390.911C929.45 391.848 929.647 392.588 929.882 393.378C930.116 394.167 930.412 395.24 930.646 396.178C930.881 397.115 931.053 397.88 931.251 398.731C931.448 399.582 931.67 400.618 931.867 401.568C932.065 402.517 932.2 403.27 932.348 404.133C932.496 404.996 932.681 406.032 932.829 406.982C932.978 407.932 933.088 408.709 933.2 409.572C933.311 410.436 933.434 411.472 933.545 412.434C933.656 413.396 933.705 414.173 933.779 415.036C933.853 415.9 933.927 416.948 933.989 417.91C934.051 418.872 934.075 419.649 934.112 420.525C934.149 421.401 934.112 422.437 934.186 423.399V426.013C934.186 426.963 934.186 427.925 934.112 428.887C934.038 429.849 934.051 430.626 933.989 431.502C933.927 432.378 933.866 433.414 933.792 434.364C933.718 435.313 933.643 436.103 933.545 436.966C933.446 437.829 933.335 438.878 933.212 439.84C933.089 440.802 932.977 441.554 932.842 442.418C932.706 443.281 932.533 444.329 932.361 445.279C932.188 446.229 932.052 446.994 931.892 447.845C931.732 448.696 931.485 449.732 931.263 450.681C931.041 451.631 930.881 452.384 930.671 453.222C930.461 454.061 930.165 455.097 929.906 456.047C929.647 456.996 929.438 457.712 929.191 458.514C928.944 459.315 928.599 460.376 928.291 461.313C927.982 462.251 927.748 462.954 927.452 463.78C927.156 464.607 926.761 465.643 926.403 466.568C926.046 467.493 925.799 468.183 925.466 469.034C925.133 469.885 924.664 470.872 924.233 471.797C923.801 472.722 923.554 473.364 923.197 474.141C922.839 474.918 922.296 475.978 921.828 476.891C921.359 477.804 921.088 478.408 920.68 479.161C920.273 479.913 919.669 480.986 919.163 481.899C918.658 482.812 918.349 483.367 917.93 484.082C917.375 485.007 916.795 485.92 916.216 486.832C915.772 487.523 915.365 488.214 914.908 488.892C914.279 489.842 913.675 490.779 912.947 491.717C912.503 492.333 912.084 492.95 911.627 493.591C910.875 494.603 910.073 495.602 909.284 496.613C908.889 497.119 908.507 497.637 908.051 498.143C906.842 499.631 905.608 501.095 904.35 502.534C936.472 469.323 954.084 424.712 953.314 378.516C952.544 332.319 933.454 288.32 900.243 256.199C867.032 224.078 822.422 206.465 776.225 207.235C730.029 208.005 686.03 227.096 653.909 260.306L612.43 301.786L694.525 383.918L736.041 342.438Z" fill="#209678"/>
<path d="M694.559 383.917L612.43 466.047L694.559 548.177L776.689 466.047L694.559 383.917Z" fill="#FBA239"/>
<path d="M406.689 260.31C385.285 281.732 373.095 310.667 372.72 340.947C372.344 371.228 383.812 400.457 404.678 422.403C394.595 411.148 389.296 396.406 389.905 381.307C390.514 366.208 396.984 351.941 407.941 341.534C418.898 331.128 433.479 325.402 448.589 325.571C463.7 325.74 478.149 331.792 488.87 342.442L530.349 383.921L612.481 301.789L571.002 260.31C569.583 258.891 568.116 257.547 566.673 256.19C544.562 236.236 515.631 225.537 485.858 226.304C456.085 227.071 427.743 239.244 406.689 260.31V260.31Z" fill="#FBA239"/>
<path d="M612.419 301.784L530.289 383.914L612.419 466.044L694.548 383.914L612.419 301.784Z" fill="#FBA239"/>
<path d="M612.428 630.315L530.296 548.183L448.571 629.896L366.439 547.764L448.164 466.051L406.685 424.572C405.982 423.869 405.291 423.142 404.625 422.401C383.963 400.628 372.533 371.7 372.733 341.684C372.933 311.668 384.747 282.894 405.697 261.398C426.648 239.902 455.108 227.352 485.109 226.381C515.111 225.41 544.323 236.093 566.62 256.189C533.3 224.609 488.861 207.457 442.964 208.464C397.067 209.47 353.423 228.553 321.52 261.563C289.616 294.574 272.032 338.843 272.591 384.748C273.15 430.652 291.806 474.48 324.504 506.704L612.009 794.16L612.428 793.753L530.703 712.028L612.428 630.315Z" fill="#DE4527"/>
<path d="M448.173 466.053L366.453 547.773L448.583 629.903L530.303 548.183L448.173 466.053Z" fill="#209678"/>
<path d="M904.447 502.334C905.738 500.904 906.972 499.44 908.148 497.943C908.567 497.438 908.949 496.92 909.381 496.414C910.17 495.403 910.972 494.404 911.724 493.392C912.181 492.775 912.6 492.159 913.044 491.517C913.71 490.58 914.376 489.643 915.005 488.693C915.462 488.015 915.869 487.324 916.313 486.633C916.892 485.72 917.472 484.808 918.027 483.883C918.459 483.167 918.854 482.427 919.261 481.7C919.668 480.972 920.297 479.886 920.778 478.961C921.259 478.036 921.542 477.457 921.925 476.692C922.307 475.927 922.85 474.867 923.294 473.942C923.738 473.016 923.985 472.375 924.33 471.598C924.675 470.821 925.156 469.76 925.563 468.835C925.97 467.91 926.192 467.232 926.501 466.368C926.809 465.505 927.216 464.518 927.549 463.581C927.882 462.644 928.116 461.953 928.388 461.114C928.659 460.275 929.004 459.252 929.288 458.314C929.572 457.377 929.769 456.637 930.003 455.848C930.238 455.058 930.522 453.96 930.768 453.023C931.015 452.086 931.163 451.333 931.36 450.482C931.558 449.631 931.792 448.595 931.989 447.645C932.187 446.696 932.31 445.931 932.458 445.08C932.606 444.229 932.803 443.181 932.939 442.218C933.075 441.256 933.186 440.504 933.309 439.641C933.432 438.777 933.543 437.729 933.642 436.767C933.741 435.805 933.815 435.04 933.889 434.164C933.963 433.289 934.037 432.253 934.086 431.303C934.135 430.353 934.185 429.551 934.209 428.688C934.234 427.825 934.209 426.764 934.283 425.814V423.2C934.283 422.237 934.283 421.275 934.209 420.326C934.135 419.376 934.135 418.574 934.086 417.711C934.037 416.847 933.963 415.799 933.876 414.837C933.79 413.875 933.728 413.098 933.642 412.235C933.556 411.371 933.42 410.323 933.297 409.373C933.173 408.423 933.062 407.646 932.927 406.783C932.791 405.92 932.618 404.884 932.446 403.934C932.273 402.984 932.137 402.219 931.965 401.368C931.792 400.517 931.558 399.469 931.348 398.532C931.138 397.594 930.953 396.829 930.744 395.978C930.534 395.127 930.25 394.104 929.979 393.179C929.708 392.254 929.51 391.489 929.263 390.712C929.017 389.935 928.671 388.849 928.363 387.924C928.055 386.999 927.82 386.272 927.524 385.458C927.228 384.643 926.834 383.607 926.476 382.695C926.118 381.782 925.859 381.067 925.526 380.228C925.193 379.389 924.737 378.39 924.293 377.477C923.849 376.565 923.602 375.899 923.244 375.122C922.887 374.345 922.344 373.296 921.888 372.396C921.431 371.495 921.135 370.854 920.728 370.102C920.321 369.349 919.729 368.301 919.224 367.401C918.718 366.5 918.397 365.908 917.99 365.18C917.583 364.453 916.892 363.392 916.325 362.504C915.758 361.616 915.437 361.073 914.968 360.37C914.364 359.47 913.735 358.582 913.106 357.694C912.625 357.015 912.169 356.337 911.688 355.683C911.009 354.758 910.281 353.858 909.566 352.957C909.097 352.341 908.641 351.724 908.148 351.12C907.334 350.133 906.483 349.159 905.681 348.197L904.447 346.704C903.128 345.261 901.783 343.83 900.39 342.437C898.996 341.043 897.54 339.674 896.085 338.354C895.579 337.898 895.049 337.466 894.543 337.022C893.581 336.183 892.619 335.332 891.632 334.555C890.991 334.025 890.325 333.531 889.671 333.026C888.796 332.347 887.932 331.644 887.044 330.991C886.156 330.337 885.576 329.967 884.849 329.449C884.121 328.931 883.171 328.215 882.382 327.685C881.593 327.155 880.779 326.674 879.915 326.168C879.052 325.662 878.299 325.144 877.448 324.651C876.597 324.158 875.722 323.677 874.858 323.196C873.995 322.715 873.292 322.295 872.502 321.876C871.713 321.456 870.64 320.938 869.715 320.482L867.458 319.372C866.471 318.903 865.472 318.484 864.473 318.052C863.758 317.744 863.042 317.411 862.327 317.115C861.278 316.696 860.218 316.301 859.169 315.881L857.122 315.104C856.012 314.71 854.889 314.364 853.767 314.007L851.843 313.378C850.61 313.02 849.487 312.712 848.303 312.391C847.711 312.231 847.07 312.058 846.515 311.91C845.281 311.602 844.048 311.33 842.814 311.059L841.174 310.701C839.879 310.442 838.559 310.22 837.252 309.998L835.772 309.751C834.403 309.542 833.021 309.381 831.652 309.221L830.197 309.061C828.766 308.913 827.335 308.802 825.905 308.703L824.745 308.617C823.253 308.543 821.773 308.493 820.28 308.469H819.281C817.739 308.469 816.198 308.469 814.656 308.469H813.817C812.238 308.53 810.647 308.629 809.069 308.752H808.366C806.737 308.888 805.122 309.061 803.432 309.27L802.877 309.332C801.212 309.554 799.547 309.813 797.943 310.097L797.524 310.171C795.834 310.479 794.144 310.825 792.467 311.195L792.159 311.269C790.444 311.651 788.742 312.095 787.04 312.564H786.843C785.116 313.045 783.389 313.575 781.675 314.13H781.588C779.849 314.697 778.11 315.363 776.396 315.98C762.179 321.446 749.185 329.67 738.16 340.179V340.179C738.888 339.526 739.628 338.946 740.381 338.28L741.096 337.713C741.614 337.306 742.132 336.899 742.65 336.479L743.575 335.826L745.006 334.839L746.005 334.197C746.474 333.901 746.93 333.605 747.411 333.322L748.484 332.717C748.94 332.458 749.397 332.187 749.865 331.94L751 331.373C751.456 331.139 751.913 330.904 752.382 330.695C752.85 330.485 753.146 330.349 753.541 330.177L754.935 329.56L756.168 329.104C756.637 328.919 757.093 328.734 757.574 328.573C758.055 328.413 758.388 328.289 758.808 328.154C759.227 328.018 759.745 327.845 760.214 327.71C760.682 327.574 761.04 327.463 761.447 327.352C761.854 327.241 762.384 327.081 762.865 326.97L764.099 326.674L765.53 326.353L766.763 326.119L768.181 325.872L769.476 325.699L770.92 325.527L772.153 325.403L773.596 325.305H774.829H776.273H777.506H778.961H780.256L781.699 325.416L782.995 325.527L784.425 325.699L785.659 325.884L787.089 326.119L788.323 326.365L789.741 326.674L790.975 326.982C791.443 327.093 791.912 327.229 792.393 327.364C792.874 327.5 793.219 327.586 793.626 327.722C794.033 327.858 794.564 328.018 795.02 328.166L796.254 328.585L797.647 329.116L798.881 329.585C799.337 329.77 799.793 329.979 800.25 330.177L801.483 330.707L802.84 331.385L803.999 331.965L805.344 332.717L806.454 333.346C806.91 333.618 807.354 333.901 807.798 334.185L808.859 334.863C809.315 335.159 809.759 335.48 810.203 335.801C810.647 336.122 810.869 336.257 811.202 336.504C811.535 336.751 812.127 337.219 812.584 337.577C813.04 337.935 813.188 338.033 813.484 338.28C813.978 338.675 814.459 339.106 814.94 339.513L815.692 340.167C816.407 340.821 817.123 341.487 817.826 342.19C828.713 353.083 834.829 367.855 834.829 383.256C834.829 398.657 828.713 413.428 817.826 424.322L776.347 465.801L858.059 547.514L775.927 629.646L694.523 548.18L612.391 630.312L694.103 712.024L612.391 793.749L612.798 794.156L900.303 506.701C901.722 505.282 903.066 503.814 904.423 502.371L904.447 502.334Z" fill="#2EBFD2"/>
<path d="M776.677 466.058L694.547 548.188L776.267 629.907L858.396 547.778L776.677 466.058Z" fill="#F5F5F5"/>
<path d="M612.423 630.303L530.703 712.023L612.423 793.743L694.143 712.023L612.423 630.303Z" fill="#DE4527"/>
</svg>
