<svg width="72" height="72" viewBox="0 0 72 72" fill="none" xmlns="http://www.w3.org/2000/svg">
<path d="M27.9593 24.6266L19.9688 32.6172L27.9593 40.6078L35.9499 32.6172L27.9593 24.6266Z" fill="#209678"/>
<path d="M47.9717 20.5941C48.0401 20.5257 48.1109 20.4585 48.1817 20.3937C49.2541 19.371 50.5184 18.5708 51.9017 18.0393C52.0697 17.9745 52.2377 17.9193 52.4069 17.8593H52.4153C52.5821 17.8053 52.7501 17.7537 52.9181 17.7069H52.9373C53.1029 17.6613 53.2685 17.6181 53.4353 17.5809L53.4653 17.5737C53.6285 17.5377 53.7929 17.5041 53.9573 17.4741L53.9981 17.4669C54.1589 17.4393 54.3209 17.4141 54.4781 17.3925L54.5321 17.3865C54.6905 17.3661 54.8477 17.3493 55.0121 17.3361H55.0805C55.2341 17.3241 55.3889 17.3145 55.5425 17.3085H55.6241C55.7741 17.3085 55.9241 17.3085 56.0741 17.3085H56.1713C56.3165 17.3085 56.4605 17.3157 56.6057 17.3229L56.7185 17.3313C56.8577 17.3409 56.9969 17.3517 57.1361 17.3661L57.2645 17.3817C57.3977 17.3973 57.5321 17.4129 57.6653 17.4333L57.8093 17.4573C57.9365 17.4789 58.0649 17.5005 58.1909 17.5257L58.3505 17.5605C58.4705 17.5869 58.5905 17.6133 58.7105 17.6433C58.7693 17.6577 58.8305 17.6745 58.8845 17.6901C59.0045 17.7213 59.1149 17.7513 59.2289 17.7861L59.4161 17.8473C59.5253 17.8821 59.6345 17.9157 59.7425 17.9541L59.9417 18.0297C60.0437 18.0681 60.1469 18.1065 60.2489 18.1497C60.3185 18.1785 60.3881 18.2109 60.4577 18.2409C60.5549 18.2829 60.6521 18.3237 60.7481 18.3693L60.9677 18.4773C61.0577 18.5217 61.1489 18.5661 61.2389 18.6129C61.3289 18.6597 61.3913 18.6981 61.4681 18.7413C61.5449 18.7845 61.6373 18.8337 61.7201 18.8829C61.8029 18.9321 61.8785 18.9813 61.9601 19.0305C62.0417 19.0797 62.1173 19.1277 62.2001 19.1781C62.2829 19.2285 62.3645 19.2921 62.4401 19.3497C62.5157 19.4073 62.5829 19.4481 62.6537 19.4997C62.7245 19.5513 62.8241 19.6317 62.9093 19.6977C62.9729 19.7469 63.0377 19.7949 63.1001 19.8465C63.1961 19.9245 63.2897 20.0073 63.3833 20.0865C63.4325 20.1297 63.4841 20.1717 63.5333 20.2161C63.6749 20.3445 63.8153 20.4765 63.9521 20.6133C64.0889 20.7501 64.2185 20.8881 64.3469 21.0285L64.4669 21.1737C64.5497 21.2673 64.6325 21.3621 64.7069 21.4581C64.7549 21.5169 64.7993 21.5781 64.8449 21.6369C64.9145 21.7245 64.9853 21.8121 65.0513 21.9021C65.0981 21.9657 65.1425 22.0317 65.1893 22.0977C65.2505 22.1841 65.3093 22.2705 65.3705 22.3581C65.4161 22.4265 65.4581 22.4961 65.5025 22.5657C65.5469 22.6353 65.6129 22.7385 65.6645 22.8261C65.7161 22.9137 65.7473 22.9701 65.7845 23.0421C65.8217 23.1141 65.8841 23.2161 65.9309 23.3049C65.9777 23.3937 66.0065 23.4537 66.0437 23.5281C66.0809 23.6025 66.1337 23.7045 66.1757 23.7933C66.2177 23.8821 66.2441 23.9457 66.2777 24.0225C66.3113 24.0993 66.3569 24.2001 66.3977 24.2901C66.4385 24.3801 66.4601 24.4473 66.4901 24.5301C66.5201 24.6129 66.5597 24.7089 66.5921 24.7989C66.6245 24.8889 66.6473 24.9597 66.6737 25.0389C66.7001 25.1181 66.7337 25.2189 66.7613 25.3101C66.7889 25.4013 66.8081 25.4733 66.8309 25.5501C66.8537 25.6269 66.8825 25.7313 66.9053 25.8225C66.9281 25.9137 66.9449 25.9881 66.9641 26.0709C66.9833 26.1537 67.0049 26.2545 67.0241 26.3469C67.0433 26.4393 67.0565 26.5125 67.0709 26.5965C67.0853 26.6805 67.1033 26.7813 67.1177 26.8737C67.1321 26.9661 67.1429 27.0417 67.1537 27.1257C67.1645 27.2097 67.1765 27.3105 67.1873 27.4041C67.1981 27.4977 67.2029 27.5733 67.2101 27.6573C67.2173 27.7413 67.2245 27.8433 67.2305 27.9369C67.2365 28.0305 67.2389 28.1061 67.2425 28.1913C67.2461 28.2765 67.2425 28.3773 67.2497 28.4709V28.7253C67.2497 28.8177 67.2497 28.9113 67.2425 29.0049C67.2353 29.0985 67.2365 29.1741 67.2305 29.2593C67.2245 29.3445 67.2185 29.4453 67.2113 29.5377C67.2041 29.6301 67.1969 29.7069 67.1873 29.7909C67.1777 29.8749 67.1669 29.9769 67.1549 30.0705C67.1429 30.1641 67.1321 30.2373 67.1189 30.3213C67.1057 30.4053 67.0889 30.5073 67.0721 30.5997C67.0553 30.6921 67.0421 30.7665 67.0265 30.8493C67.0109 30.9321 66.9869 31.0329 66.9653 31.1253C66.9437 31.2177 66.9281 31.2909 66.9077 31.3725C66.8873 31.4541 66.8585 31.5549 66.8333 31.6473C66.8081 31.7397 66.7877 31.8093 66.7637 31.8873C66.7397 31.9653 66.7061 32.0685 66.6761 32.1597C66.6461 32.2509 66.6233 32.3193 66.5945 32.3997C66.5657 32.4801 66.5273 32.5809 66.4925 32.6709C66.4577 32.7609 66.4337 32.8281 66.4013 32.9109C66.3689 32.9937 66.3233 33.0897 66.2813 33.1797C66.2393 33.2697 66.2153 33.3321 66.1805 33.4077C66.1457 33.4833 66.0929 33.5865 66.0473 33.6753C66.0017 33.7641 65.9753 33.8229 65.9357 33.8961C65.8961 33.9693 65.8373 34.0737 65.7881 34.1625C65.7389 34.2513 65.7089 34.3053 65.6681 34.3749C65.6141 34.4649 65.5577 34.5537 65.5013 34.6425C65.4581 34.7097 65.4185 34.7769 65.3741 34.8429C65.3129 34.9353 65.2541 35.0265 65.1833 35.1177C65.1401 35.1777 65.0993 35.2377 65.0549 35.3001C64.9817 35.3985 64.9037 35.4957 64.8269 35.5941C64.7885 35.6433 64.7513 35.6937 64.7069 35.7429C64.5893 35.8877 64.4693 36.0301 64.3469 36.1701C67.4721 32.9389 69.1857 28.5987 69.1107 24.1041C69.0358 19.6095 67.1784 15.3288 63.9473 12.2037C60.7162 9.07851 56.3759 7.36492 51.8814 7.43986C47.3868 7.5148 43.1061 9.37213 39.9809 12.6033L35.9453 16.6389L43.9325 24.6297L47.9717 20.5941Z" fill="#209678"/>
<path d="M43.9359 24.6266L35.9453 32.6172L43.9359 40.6078L51.9265 32.6172L43.9359 24.6266Z" fill="#FBA239"/>
<path d="M15.9308 12.6013C13.8483 14.6855 12.6624 17.5007 12.6259 20.4467C12.5893 23.3927 13.7051 26.2365 15.7352 28.3717C14.7542 27.2766 14.2386 25.8424 14.2978 24.3734C14.3571 22.9043 14.9866 21.5163 16.0526 20.5038C17.1186 19.4913 18.5373 18.9342 20.0074 18.9507C21.4775 18.9672 22.8833 19.556 23.9264 20.5921L27.962 24.6277L35.9527 16.6369L31.9171 12.6013C31.7791 12.4633 31.6363 12.3325 31.4959 12.2005C29.3447 10.2591 26.53 9.21822 23.6333 9.29281C20.7366 9.3674 17.9792 10.5518 15.9308 12.6013Z" fill="#FBA239"/>
<path d="M35.9437 16.6422L27.9531 24.6328L35.9437 32.6234L43.9343 24.6328L35.9437 16.6422Z" fill="#FBA239"/>
<path d="M35.9476 48.6016L27.9568 40.6108L20.0056 48.5608L12.0148 40.57L19.966 32.62L15.9304 28.5844C15.862 28.516 15.7948 28.4452 15.73 28.3732C13.7197 26.2549 12.6076 23.4404 12.6271 20.52C12.6465 17.5997 13.7959 14.8003 15.8343 12.7089C17.8726 10.6175 20.6415 9.39649 23.5604 9.302C26.4793 9.2075 29.3214 10.2468 31.4908 12.202C28.249 9.12952 23.9254 7.46085 19.4601 7.55877C14.9947 7.65668 10.7484 9.51328 7.64443 12.7249C4.54046 15.9366 2.8297 20.2437 2.88407 24.7098C2.93844 29.1759 4.75353 33.4401 7.93477 36.5752L35.9068 64.5424L35.9476 64.5028L27.9964 56.5516L35.9476 48.6016Z" fill="#DE4527"/>
<path d="M19.9663 32.6196L12.0156 40.5703L20.0062 48.5609L27.9569 40.6102L19.9663 32.6196Z" fill="#209678"/>
<path d="M64.3601 36.1507C64.4857 36.0115 64.6057 35.8691 64.7201 35.7235C64.7609 35.6743 64.7981 35.6239 64.8401 35.5747C64.9169 35.4763 64.9949 35.3791 65.0681 35.2807C65.1125 35.2207 65.1533 35.1607 65.1965 35.0983C65.2613 35.0071 65.3261 34.9159 65.3873 34.8235C65.4317 34.7575 65.4713 34.6903 65.5145 34.6231C65.5709 34.5343 65.6273 34.4455 65.6813 34.3555C65.7233 34.2859 65.7617 34.2139 65.8013 34.1431C65.8409 34.0723 65.9021 33.9667 65.9489 33.8767C65.9957 33.7867 66.0233 33.7303 66.0605 33.6559C66.0977 33.5815 66.1505 33.4783 66.1937 33.3883C66.2369 33.2983 66.2609 33.2359 66.2945 33.1603C66.3281 33.0847 66.3749 32.9815 66.4145 32.8915C66.4541 32.8015 66.4757 32.7355 66.5057 32.6515C66.5357 32.5675 66.5753 32.4715 66.6077 32.3803C66.6401 32.2891 66.6629 32.2219 66.6893 32.1403C66.7157 32.0587 66.7493 31.9591 66.7769 31.8679C66.8045 31.7767 66.8237 31.7047 66.8465 31.6279C66.8693 31.5511 66.8969 31.4443 66.9209 31.3531C66.9449 31.2619 66.9593 31.1887 66.9785 31.1059C66.9977 31.0231 67.0205 30.9223 67.0397 30.8299C67.0589 30.7375 67.0709 30.6631 67.0853 30.5803C67.0997 30.4975 67.1189 30.3955 67.1321 30.3019C67.1453 30.2083 67.1561 30.1351 67.1681 30.0511C67.1801 29.9671 67.1909 29.8651 67.2005 29.7715C67.2101 29.6779 67.2173 29.6035 67.2245 29.5183C67.2317 29.4331 67.2389 29.3323 67.2437 29.2399C67.2485 29.1475 67.2533 29.0695 67.2557 28.9855C67.2581 28.9015 67.2557 28.7983 67.2629 28.7059V28.4515C67.2629 28.3579 67.2629 28.2643 67.2557 28.1719C67.2485 28.0795 67.2485 28.0015 67.2437 27.9175C67.2389 27.8335 67.2317 27.7315 67.2233 27.6379C67.2149 27.5443 67.2089 27.4687 67.2005 27.3847C67.1921 27.3007 67.1789 27.1987 67.1669 27.1063C67.1549 27.0139 67.1441 26.9383 67.1309 26.8543C67.1177 26.7703 67.1009 26.6695 67.0841 26.5771C67.0673 26.4847 67.0541 26.4103 67.0373 26.3275C67.0205 26.2447 66.9977 26.1427 66.9773 26.0515C66.9569 25.9603 66.9389 25.8859 66.9185 25.8031C66.8981 25.7203 66.8705 25.6207 66.8441 25.5307C66.8177 25.4407 66.7985 25.3663 66.7745 25.2907C66.7505 25.2151 66.7169 25.1095 66.6869 25.0195C66.6569 24.9295 66.6341 24.8587 66.6053 24.7795C66.5765 24.7003 66.5381 24.5995 66.5033 24.5107C66.4685 24.4219 66.4433 24.3523 66.4109 24.2707C66.3785 24.1891 66.3341 24.0919 66.2909 24.0031C66.2477 23.9143 66.2237 23.8495 66.1889 23.7739C66.1541 23.6983 66.1013 23.5963 66.0569 23.5087C66.0125 23.4211 65.9837 23.3587 65.9441 23.2855C65.9045 23.2123 65.8469 23.1103 65.7977 23.0227C65.7485 22.9351 65.7173 22.8775 65.6777 22.8067C65.6381 22.7359 65.5709 22.6327 65.5157 22.5463C65.4605 22.4599 65.4293 22.4071 65.3837 22.3387C65.3249 22.2511 65.2637 22.1647 65.2025 22.0783C65.1557 22.0123 65.1113 21.9463 65.0645 21.8827C64.9985 21.7927 64.9277 21.7051 64.8581 21.6175C64.8125 21.5575 64.7681 21.4975 64.7201 21.4387C64.6409 21.3427 64.5581 21.2479 64.4801 21.1543L64.3601 21.0091C64.2317 20.8687 64.1009 20.7295 63.9653 20.5939C63.8297 20.4583 63.6881 20.3251 63.5465 20.1967C63.4973 20.1523 63.4457 20.1103 63.3965 20.0671C63.3029 19.9855 63.2093 19.9027 63.1133 19.8271C63.0509 19.7755 62.9861 19.7275 62.9225 19.6783C62.8373 19.6123 62.7533 19.5439 62.6669 19.4803C62.5805 19.4167 62.5241 19.3807 62.4533 19.3303C62.3825 19.2799 62.2901 19.2103 62.2133 19.1587C62.1365 19.1071 62.0573 19.0603 61.9733 19.0111C61.8893 18.9619 61.8161 18.9115 61.7333 18.8635C61.6505 18.8155 61.5653 18.7687 61.4813 18.7219C61.3973 18.6751 61.3289 18.6343 61.2521 18.5935C61.1753 18.5527 61.0709 18.5023 60.9809 18.4579L60.7613 18.3499C60.6653 18.3043 60.5681 18.2635 60.4709 18.2215C60.4013 18.1915 60.3317 18.1591 60.2621 18.1303C60.1601 18.0895 60.0569 18.0511 59.9549 18.0103L59.7557 17.9347C59.6477 17.8963 59.5385 17.8627 59.4293 17.8279L59.2421 17.7667C59.1221 17.7319 59.0129 17.7019 58.8977 17.6707C58.8401 17.6551 58.7777 17.6383 58.7237 17.6239C58.6037 17.5939 58.4837 17.5675 58.3637 17.5411L58.2041 17.5063C58.0781 17.4811 57.9497 17.4595 57.8225 17.4379L57.6785 17.4139C57.5453 17.3935 57.4109 17.3779 57.2777 17.3623L57.1361 17.3467C56.9969 17.3323 56.8577 17.3215 56.7185 17.3119L56.6057 17.3035C56.4605 17.2963 56.3165 17.2915 56.1713 17.2891H56.0741C55.9241 17.2891 55.7741 17.2891 55.6241 17.2891H55.5425C55.3889 17.2951 55.2341 17.3047 55.0805 17.3167H55.0121C54.8537 17.3299 54.6965 17.3467 54.5321 17.3671L54.4781 17.3731C54.3161 17.3947 54.1541 17.4199 53.9981 17.4475L53.9573 17.4547C53.7929 17.4847 53.6285 17.5183 53.4653 17.5543L53.4353 17.5615C53.2685 17.5987 53.1029 17.6419 52.9373 17.6875H52.9181C52.7501 17.7343 52.5821 17.7859 52.4153 17.8399H52.4069C52.2377 17.8951 52.0685 17.9599 51.9017 18.0199C50.5186 18.5516 49.2543 19.3518 48.1817 20.3743C48.2525 20.3107 48.3245 20.2543 48.3977 20.1895L48.4673 20.1343C48.5177 20.0947 48.5681 20.0551 48.6185 20.0143L48.7085 19.9507L48.8477 19.8547L48.9449 19.7923C48.9905 19.7635 49.0349 19.7347 49.0817 19.7071L49.1861 19.6483C49.2305 19.6231 49.2749 19.5967 49.3205 19.5727L49.4309 19.5175C49.4753 19.4947 49.5197 19.4719 49.5653 19.4515C49.6109 19.4311 49.6397 19.4179 49.6781 19.4011L49.8137 19.3411L49.9337 19.2967C49.9793 19.2787 50.0237 19.2607 50.0705 19.2451C50.1173 19.2295 50.1497 19.2175 50.1905 19.2043C50.2313 19.1911 50.2817 19.1743 50.3273 19.1611C50.3729 19.1479 50.4077 19.1371 50.4473 19.1263C50.4869 19.1155 50.5385 19.0999 50.5853 19.0891L50.7053 19.0603L50.8445 19.0291L50.9645 19.0063L51.1025 18.9823L51.2285 18.9655L51.3689 18.9487L51.4889 18.9367L51.6293 18.9271H51.7493H51.8897H52.0097H52.1513H52.2773L52.4177 18.9379L52.5437 18.9487L52.6829 18.9655L52.8029 18.9835L52.9421 19.0063L53.0621 19.0303L53.2001 19.0603L53.3201 19.0903C53.3657 19.1011 53.4113 19.1143 53.4581 19.1275C53.5049 19.1407 53.5385 19.1491 53.5781 19.1623C53.6177 19.1755 53.6693 19.1911 53.7137 19.2055L53.8337 19.2463L53.9693 19.2979L54.0893 19.3435C54.1337 19.3615 54.1781 19.3819 54.2225 19.4011L54.3425 19.4527L54.4745 19.5187L54.5873 19.5751L54.7181 19.6483L54.8261 19.7095C54.8705 19.7359 54.9137 19.7635 54.9569 19.7911L55.0601 19.8571C55.1045 19.8859 55.1477 19.9171 55.1909 19.9483C55.2341 19.9795 55.2557 19.9927 55.2881 20.0167C55.3205 20.0407 55.3781 20.0863 55.4225 20.1211C55.4669 20.1559 55.4813 20.1655 55.5101 20.1895C55.5581 20.2279 55.6049 20.2699 55.6517 20.3095L55.7249 20.3731C55.7945 20.4367 55.8641 20.5015 55.9325 20.5699C56.9918 21.6297 57.5868 23.0668 57.5868 24.5653C57.5868 26.0637 56.9918 27.5008 55.9325 28.5607L51.8969 32.5963L59.8469 40.5463L51.8561 48.5371L43.9361 40.6111L35.9453 48.6019L43.8953 56.5519L35.9453 64.5031L35.9849 64.5427L63.9569 36.5755C64.0949 36.4375 64.2257 36.2947 64.3577 36.1543L64.3601 36.1507Z" fill="#2EBFD2"/>
<path d="M51.9281 32.6188L43.9375 40.6094L51.8882 48.5601L59.8788 40.5695L51.9281 32.6188Z" fill="#F5F5F5"/>
<path d="M35.9507 48.604L28 56.5547L35.9507 64.5054L43.9014 56.5547L35.9507 48.604Z" fill="#DE4527"/>
</svg>
