<svg width="24" height="24" viewBox="0 0 24 24" fill="none" xmlns="http://www.w3.org/2000/svg">
<path d="M12.0002 0C5.37284 0 0 5.37192 0 11.9993C0 18.6267 5.37284 23.9995 12.0002 23.9995C18.6271 23.9995 24 18.6267 24 11.9993C24 5.37192 18.6271 0 12.0002 0ZM15.7944 17.726C14.7163 18.8679 13.3377 19.4388 11.6585 19.4388C10.9968 19.4388 10.3546 19.3196 9.73197 19.0813C9.10917 18.8429 8.5739 18.5102 8.12566 18.0834C7.61334 17.6139 7.22909 17.1176 6.97296 16.5946C6.71677 16.0717 6.58871 15.5363 6.58871 14.9882C6.58871 14.3764 6.72033 13.9033 6.98363 13.5688C7.24673 13.2343 7.663 13.0068 8.23239 12.8856C8.12571 12.6366 8.04725 12.4266 7.9976 12.2559C7.94779 12.0852 7.92289 11.9535 7.92289 11.861C7.92289 11.5408 8.09189 11.2137 8.42985 10.8791C8.76766 10.5446 9.08627 10.3774 9.38514 10.3774C9.51321 10.3774 9.64824 10.4006 9.79069 10.4468C9.93303 10.4932 10.0965 10.5696 10.2817 10.6763C9.73362 9.12511 9.33529 7.92791 9.08627 7.0847C8.83705 6.24154 8.71274 5.65983 8.71274 5.33966C8.71274 4.89849 8.82643 4.5482 9.0543 4.28836C9.28197 4.02862 9.59152 3.8988 9.98284 3.8988C10.6516 3.8988 11.4985 5.39307 12.5231 8.38161C12.7008 8.89392 12.8362 9.2888 12.9287 9.56638C13.0069 9.34591 13.1171 9.03271 13.2596 8.62712C14.2842 5.66704 15.1664 4.18705 15.9065 4.18705C16.2695 4.18705 16.5593 4.30981 16.7764 4.55527C16.9934 4.80078 17.1019 5.13001 17.1019 5.54253C17.1019 5.85578 16.9827 6.42843 16.7444 7.26092C16.5059 8.09345 16.1449 9.18212 15.6611 10.5269C16.3014 10.648 16.7533 10.9183 17.0166 11.3381C17.2797 11.758 17.4115 12.4198 17.4115 13.3234C17.4113 15.1164 16.8724 16.5839 15.7944 17.726Z" fill="#878787"/>
</svg>
