<svg width="24" height="24" viewBox="0 0 24 24" fill="none" xmlns="http://www.w3.org/2000/svg">
<path d="M21.1429 0H2.85714C1.28 0 0 1.28 0 2.85714V21.1429C0 22.72 1.28 24 2.85714 24H21.1429C22.72 24 24 22.72 24 21.1429V2.85714C24 1.28 22.72 0 21.1429 0ZM7.42857 9.14286V20H4V9.14286H7.42857ZM4 5.98286C4 5.18286 4.68571 4.57143 5.71429 4.57143C6.74286 4.57143 7.38857 5.18286 7.42857 5.98286C7.42857 6.78286 6.78857 7.42857 5.71429 7.42857C4.68571 7.42857 4 6.78286 4 5.98286ZM20 20H16.5714C16.5714 20 16.5714 14.7086 16.5714 14.2857C16.5714 13.1429 16 12 14.5714 11.9771H14.5257C13.1429 11.9771 12.5714 13.1543 12.5714 14.2857C12.5714 14.8057 12.5714 20 12.5714 20H9.14286V9.14286H12.5714V10.6057C12.5714 10.6057 13.6743 9.14286 15.8914 9.14286C18.16 9.14286 20 10.7029 20 13.8629V20Z" fill="#878787"/>
</svg>
