<svg width="24" height="24" viewBox="0 0 24 24" fill="none" xmlns="http://www.w3.org/2000/svg">
<path d="M7 0C6.08075 -3.32088e-08 5.1705 0.310389 4.32122 0.913445C3.47194 1.5165 2.70026 2.40042 2.05025 3.51472C1.40024 4.62902 0.884626 5.95189 0.532843 7.4078C0.18106 8.86371 0 10.4241 0 12C0 13.5759 0.18106 15.1363 0.532843 16.5922C0.884626 18.0481 1.40024 19.371 2.05025 20.4853C2.70026 21.5996 3.47194 22.4835 4.32122 23.0866C5.1705 23.6896 6.08075 24 7 24C7.91925 24 8.8295 23.6896 9.67878 23.0866C10.5281 22.4835 11.2997 21.5996 11.9497 20.4853C12.5998 19.371 13.1154 18.0481 13.4672 16.5922C13.8189 15.1363 14 13.5759 14 12C14 10.4241 13.8189 8.86371 13.4672 7.4078C13.1154 5.95189 12.5998 4.62902 11.9497 3.51472C11.2997 2.40042 10.5281 1.5165 9.67878 0.913445C8.8295 0.310389 7.91925 -3.32088e-08 7 0ZM18 0.857143C17.2044 0.857143 16.4413 2.03112 15.8787 4.12081C15.3161 6.2105 15 9.04473 15 12C15 14.9553 15.3161 17.7895 15.8787 19.8792C16.4413 21.9689 17.2044 23.1429 18 23.1429C18.7956 23.1429 19.5587 21.9689 20.1213 19.8792C20.6839 17.7895 21 14.9553 21 12C21 9.04473 20.6839 6.2105 20.1213 4.12081C19.5587 2.03112 18.7956 0.857143 18 0.857143ZM23 3.42857C22.7348 3.42857 22.4804 4.33163 22.2929 5.93909C22.1054 7.54654 22 9.72672 22 12C22 14.2733 22.1054 16.4535 22.2929 18.0609C22.4804 19.6684 22.7348 20.5714 23 20.5714C23.2652 20.5714 23.5196 19.6684 23.7071 18.0609C23.8946 16.4535 24 14.2733 24 12C24 9.72672 23.8946 7.54654 23.7071 5.93909C23.5196 4.33163 23.2652 3.42857 23 3.42857Z" fill="#878787"/>
</svg>
