<svg width="24" height="24" viewBox="0 0 24 24" fill="none" xmlns="http://www.w3.org/2000/svg">
<path d="M24 2.84684C23.1174 3.32792 22.1693 3.65297 21.1726 3.79989C22.201 3.0429 22.9704 1.85148 23.3373 0.447947C22.371 1.15395 21.3135 1.6509 20.2107 1.91719C19.4691 0.943152 18.4868 0.297546 17.4164 0.0806033C16.3459 -0.13634 15.2472 0.0875171 14.2907 0.71742C13.3343 1.34732 12.5737 2.34803 12.127 3.56417C11.6803 4.78031 11.5725 6.14385 11.8203 7.44309C9.86244 7.32216 7.94711 6.69618 6.19863 5.60576C4.45016 4.51535 2.90761 2.98487 1.6711 1.11366C1.2483 2.0108 1.0052 3.05097 1.0052 4.15875C1.00473 5.15601 1.20437 6.13799 1.58641 7.01757C1.96846 7.89715 2.52109 8.64713 3.19528 9.20098C2.4134 9.17037 1.64877 8.91049 0.965031 8.44295V8.52096C0.964952 9.91965 1.35827 11.2753 2.07823 12.3579C2.7982 13.4405 3.80048 14.1833 4.915 14.4603C4.18968 14.7018 3.42923 14.7374 2.69109 14.5644C3.00555 15.7678 3.61807 16.8203 4.44291 17.5742C5.26776 18.3282 6.26363 18.7461 7.29111 18.7692C5.5469 20.4535 3.39282 21.3672 1.17537 21.3632C0.782575 21.3633 0.39011 21.3351 0 21.2786C2.25083 23.0589 4.87097 24.0037 7.5469 24C16.6053 24 21.5573 14.7711 21.5573 6.76698C21.5573 6.50694 21.552 6.24429 21.5425 5.98425C22.5057 5.12738 23.3372 4.0663 23.9979 2.85074L24 2.84684Z" fill="#878787"/>
</svg>
