<svg width="24" height="24" viewBox="0 0 24 24" fill="none" xmlns="http://www.w3.org/2000/svg">
<path d="M23.3301 4.125C23.1082 2.47559 22.0511 1.27441 20.8244 0.899414C18.9886 0.375 15.5911 0 11.9152 0C8.24144 0 4.78956 0.375 2.9516 0.899414C1.72703 1.27441 0.667754 2.39941 0.445894 4.125C0.22186 6 0 8.625 0 12C0 15.375 0.22186 18 0.500272 19.875C0.724307 21.5244 1.7814 22.7256 3.00598 23.1006C4.95487 23.625 8.29581 24 11.9717 24C15.6476 24 18.9886 23.625 20.9375 23.1006C22.162 22.7256 23.2191 21.6006 23.4432 19.875C23.665 18 23.9434 15.2988 24 12C23.8869 8.625 23.6085 6 23.3301 4.125ZM8.90919 17.25V6.75L15.702 12L8.90919 17.25Z" fill="#878787"/>
</svg>
