<svg width="20" height="20" viewBox="0 0 20 20" fill="none" xmlns="http://www.w3.org/2000/svg">
<path d="M10.0004 0C4.47746 0 0 4.47669 0 9.99959C0 15.5225 4.47746 20 10.0004 20C15.5229 20 20.0004 15.5225 20.0004 9.99959C20.0004 4.47669 15.5229 0 10.0004 0ZM13.1622 14.7719C12.2638 15.7236 11.115 16.1994 9.7156 16.1994C9.16415 16.1994 8.62898 16.1 8.11014 15.9014C7.59113 15.7027 7.14506 15.4255 6.77152 15.0698C6.34458 14.6785 6.02437 14.2649 5.81092 13.8291C5.59743 13.3933 5.4907 12.9472 5.4907 12.4905C5.4907 11.9805 5.60039 11.5863 5.81981 11.3075C6.03907 11.0288 6.38597 10.8392 6.86046 10.7382C6.77156 10.5307 6.70618 10.3558 6.6648 10.2135C6.62329 10.0712 6.60254 9.96146 6.60254 9.88438C6.60254 9.61757 6.74338 9.34491 7.02502 9.06607C7.30653 8.78736 7.57204 8.64803 7.82111 8.64803C7.92783 8.64803 8.04037 8.66732 8.15907 8.70586C8.2777 8.74452 8.41395 8.80815 8.56823 8.89709C8.11152 7.60441 7.77956 6.60672 7.57204 5.90404C7.36436 5.20139 7.26076 4.71662 7.26076 4.4498C7.26076 4.08216 7.35551 3.79025 7.5454 3.57371C7.73514 3.35725 7.9931 3.24907 8.3192 3.24907C8.8765 3.24907 9.58224 4.49432 10.4361 6.98481C10.5842 7.41175 10.697 7.74082 10.7741 7.97214C10.8393 7.78842 10.9312 7.52741 11.0499 7.18941C11.9038 4.72263 12.6389 3.48928 13.2557 3.48928C13.5582 3.48928 13.7997 3.59158 13.9806 3.79613C14.1615 4.00073 14.2519 4.2751 14.2519 4.61887C14.2519 4.87991 14.1526 5.35713 13.9539 6.05089C13.7552 6.74468 13.4544 7.65192 13.0512 8.77262C13.5848 8.87354 13.9614 9.09877 14.1808 9.44859C14.4001 9.79857 14.5099 10.35 14.5099 11.103C14.5097 12.5972 14.0606 13.8202 13.1622 14.7719Z" fill="#878787"/>
</svg>
