<svg width="20" height="20" viewBox="0 0 20 20" fill="none" xmlns="http://www.w3.org/2000/svg">
<path d="M17.619 0H2.38095C1.06667 0 0 1.06667 0 2.38095V17.619C0 18.9333 1.06667 20 2.38095 20H17.619C18.9333 20 20 18.9333 20 17.619V2.38095C20 1.06667 18.9333 0 17.619 0ZM15.7143 7.14286H14.7619C13.7429 7.14286 13.3333 7.38095 13.3333 8.09524V9.52381H15.7143L15.2381 11.9048H13.3333V19.0476H10.9524V11.9048H9.04762V9.52381H10.9524V8.09524C10.9524 6.19048 11.9048 4.7619 13.8095 4.7619C15.1905 4.7619 15.7143 5.2381 15.7143 5.2381V7.14286Z" fill="#878787"/>
</svg>
