<svg width="20" height="20" viewBox="0 0 20 20" fill="none" xmlns="http://www.w3.org/2000/svg">
<path d="M17.619 0H2.38095C1.06667 0 0 1.06667 0 2.38095V17.619C0 18.9333 1.06667 20 2.38095 20H17.619C18.9333 20 20 18.9333 20 17.619V2.38095C20 1.06667 18.9333 0 17.619 0ZM6.19048 7.61905V16.6667H3.33333V7.61905H6.19048ZM3.33333 4.98571C3.33333 4.31905 3.90476 3.80952 4.7619 3.80952C5.61905 3.80952 6.15714 4.31905 6.19048 4.98571C6.19048 5.65238 5.65714 6.19048 4.7619 6.19048C3.90476 6.19048 3.33333 5.65238 3.33333 4.98571ZM16.6667 16.6667H13.8095C13.8095 16.6667 13.8095 12.2571 13.8095 11.9048C13.8095 10.9524 13.3333 10 12.1429 9.98095H12.1048C10.9524 9.98095 10.4762 10.9619 10.4762 11.9048C10.4762 12.3381 10.4762 16.6667 10.4762 16.6667H7.61905V7.61905H10.4762V8.8381C10.4762 8.8381 11.3952 7.61905 13.2429 7.61905C15.1333 7.61905 16.6667 8.91905 16.6667 11.5524V16.6667Z" fill="#878787"/>
</svg>
