<svg width="20" height="20" viewBox="0 0 20 20" fill="none" xmlns="http://www.w3.org/2000/svg">
<path d="M5.83333 0C5.06729 -2.7674e-08 4.30875 0.258657 3.60101 0.761204C2.89328 1.26375 2.25022 2.00035 1.70854 2.92893C1.16687 3.85752 0.737188 4.95991 0.444036 6.17317C0.150884 7.38642 0 8.68678 0 10C0 11.3132 0.150884 12.6136 0.444036 13.8268C0.737188 15.0401 1.16687 16.1425 1.70854 17.0711C2.25022 17.9997 2.89328 18.7362 3.60101 19.2388C4.30875 19.7413 5.06729 20 5.83333 20C6.59938 20 7.35792 19.7413 8.06565 19.2388C8.77339 18.7362 9.41645 17.9997 9.95812 17.0711C10.4998 16.1425 10.9295 15.0401 11.2226 13.8268C11.5158 12.6136 11.6667 11.3132 11.6667 10C11.6667 8.68678 11.5158 7.38642 11.2226 6.17317C10.9295 4.95991 10.4998 3.85752 9.95812 2.92893C9.41645 2.00035 8.77339 1.26375 8.06565 0.761204C7.35792 0.258657 6.59938 -2.7674e-08 5.83333 0V0ZM15 0.714286C14.337 0.714286 13.7011 1.6926 13.2322 3.43401C12.7634 5.17542 12.5 7.53728 12.5 10C12.5 12.4627 12.7634 14.8246 13.2322 16.566C13.7011 18.3074 14.337 19.2857 15 19.2857C15.663 19.2857 16.2989 18.3074 16.7678 16.566C17.2366 14.8246 17.5 12.4627 17.5 10C17.5 7.53728 17.2366 5.17542 16.7678 3.43401C16.2989 1.6926 15.663 0.714286 15 0.714286ZM19.1667 2.85714C18.9457 2.85714 18.7337 3.60969 18.5774 4.94924C18.4211 6.28878 18.3333 8.1056 18.3333 10C18.3333 11.8944 18.4211 13.7112 18.5774 15.0508C18.7337 16.3903 18.9457 17.1429 19.1667 17.1429C19.3877 17.1429 19.5996 16.3903 19.7559 15.0508C19.9122 13.7112 20 11.8944 20 10C20 8.1056 19.9122 6.28878 19.7559 4.94924C19.5996 3.60969 19.3877 2.85714 19.1667 2.85714Z" fill="#878787"/>
</svg>
