<svg width="20" height="20" viewBox="0 0 20 20" fill="none" xmlns="http://www.w3.org/2000/svg">
<path d="M20 2.37236C19.2645 2.77326 18.4744 3.04414 17.6438 3.16658C18.5008 2.53575 19.142 1.5429 19.4477 0.373289C18.6425 0.961624 17.7612 1.37575 16.8422 1.59766C16.2242 0.78596 15.4057 0.247955 14.5136 0.0671694C13.6216 -0.113617 12.706 0.0729309 11.909 0.59785C11.1119 1.12277 10.4781 1.95669 10.1058 2.97014C9.73358 3.98359 9.64374 5.11988 9.85026 6.20257C8.2187 6.1018 6.62259 5.58015 5.16553 4.67147C3.70847 3.76279 2.42301 2.48739 1.39258 0.928046C1.04025 1.67567 0.837664 2.54248 0.837664 3.46563C0.837271 4.29667 1.00364 5.11499 1.32201 5.84798C1.64038 6.58096 2.10091 7.20594 2.66273 7.66748C2.01117 7.64198 1.37397 7.4254 0.804193 7.03579V7.1008C0.804127 8.26638 1.13189 9.39609 1.73186 10.2982C2.33184 11.2004 3.16707 11.8194 4.09583 12.0503C3.4914 12.2515 2.85769 12.2811 2.24258 12.137C2.50462 13.1399 3.01506 14.0169 3.70243 14.6452C4.3898 15.2735 5.21969 15.6217 6.07593 15.641C4.62242 17.0446 2.82735 17.806 0.979477 17.8026C0.652146 17.8027 0.325091 17.7792 0 17.7322C1.87569 19.2157 4.05914 20.003 6.28909 20C13.8378 20 17.9644 12.3092 17.9644 5.63915C17.9644 5.42245 17.96 5.20358 17.9521 4.98687C18.7548 4.27281 19.4476 3.38858 19.9982 2.37562L20 2.37236V2.37236Z" fill="#878787"/>
</svg>
