<svg width="20" height="20" viewBox="0 0 20 20" fill="none" xmlns="http://www.w3.org/2000/svg">
<path d="M19.4417 3.4375C19.2568 2.06299 18.3759 1.06201 17.3536 0.749512C15.8238 0.3125 12.9926 0 9.92931 0C6.86786 0 3.9913 0.3125 2.45967 0.749512C1.43919 1.06201 0.556462 1.99951 0.371579 3.4375C0.184883 5 0 7.1875 0 10C0 12.8125 0.184883 15 0.416893 16.5625C0.603589 17.937 1.4845 18.938 2.50499 19.2505C4.12906 19.6875 6.91318 20 9.97644 20C13.0397 20 15.8238 19.6875 17.4479 19.2505C18.4684 18.938 19.3493 18.0005 19.536 16.5625C19.7209 15 19.9529 12.749 20 10C19.9057 7.1875 19.6737 5 19.4417 3.4375ZM7.42432 14.375V5.625L13.085 10L7.42432 14.375Z" fill="#878787"/>
</svg>
